<svg xmlns="http://www.w3.org/2000/svg" width="16.685" height="16.685" viewBox="0 0 16.685 16.685">
  <path id="Icon_material-copyright" data-name="Icon material-copyright" d="M9.741,10.391a2.133,2.133,0,0,1,.25-.726,1.459,1.459,0,0,1,.492-.517,1.48,1.48,0,0,1,.759-.192,1.512,1.512,0,0,1,.526.108,1.345,1.345,0,0,1,.434.3,1.606,1.606,0,0,1,.284.442,1.461,1.461,0,0,1,.117.534H14.1a2.986,2.986,0,0,0-.234-1.076,2.5,2.5,0,0,0-.584-.843,2.725,2.725,0,0,0-.9-.551,3.223,3.223,0,0,0-1.16-.192A3.26,3.26,0,0,0,9.8,7.964a2.869,2.869,0,0,0-1,.767,3.136,3.136,0,0,0-.592,1.135,4.886,4.886,0,0,0-.2,1.368v.225A4.884,4.884,0,0,0,8.2,12.827a3.033,3.033,0,0,0,.592,1.126,2.848,2.848,0,0,0,1,.759A3.385,3.385,0,0,0,11.209,15a3.182,3.182,0,0,0,1.1-.192,2.846,2.846,0,0,0,.9-.526,2.546,2.546,0,0,0,.617-.784,2.245,2.245,0,0,0,.25-.959H12.585a1.188,1.188,0,0,1-.125.484,1.228,1.228,0,0,1-.3.384,1.314,1.314,0,0,1-.434.25,1.657,1.657,0,0,1-.5.083,1.417,1.417,0,0,1-.742-.192,1.459,1.459,0,0,1-.492-.517,2.18,2.18,0,0,1-.25-.734,5.623,5.623,0,0,1-.067-.834v-.225a5.558,5.558,0,0,1,.067-.843ZM11.342,3a8.342,8.342,0,1,0,8.342,8.342A8.345,8.345,0,0,0,11.342,3Zm0,15.016a6.674,6.674,0,1,1,6.674-6.674A6.683,6.683,0,0,1,11.342,18.016Z" transform="translate(-3 -3)" fill="#fff"/>
</svg>
