<svg xmlns="http://www.w3.org/2000/svg" width="23.443" height="23.438" viewBox="0 0 23.443 23.438">
  <path id="Icon_awesome-instagram" data-name="Icon awesome-instagram" d="M11.719,7.947a6.009,6.009,0,1,0,6.009,6.009A6,6,0,0,0,11.719,7.947Zm0,9.916a3.907,3.907,0,1,1,3.907-3.907,3.914,3.914,0,0,1-3.907,3.907ZM19.375,7.7a1.4,1.4,0,1,1-1.4-1.4A1.4,1.4,0,0,1,19.375,7.7Zm3.98,1.423a6.936,6.936,0,0,0-1.893-4.911A6.982,6.982,0,0,0,16.551,2.32c-1.935-.11-7.735-.11-9.67,0A6.972,6.972,0,0,0,1.97,4.208,6.959,6.959,0,0,0,.077,9.119c-.11,1.935-.11,7.735,0,9.67A6.936,6.936,0,0,0,1.97,23.7a6.991,6.991,0,0,0,4.911,1.893c1.935.11,7.735.11,9.67,0A6.936,6.936,0,0,0,21.462,23.7a6.982,6.982,0,0,0,1.893-4.911c.11-1.935.11-7.73,0-9.665Zm-2.5,11.741a3.955,3.955,0,0,1-2.228,2.228c-1.543.612-5.2.471-6.909.471s-5.371.136-6.909-.471a3.955,3.955,0,0,1-2.228-2.228c-.612-1.543-.471-5.2-.471-6.909s-.136-5.371.471-6.909A3.955,3.955,0,0,1,4.81,4.82c1.543-.612,5.2-.471,6.909-.471s5.371-.136,6.909.471a3.955,3.955,0,0,1,2.228,2.228c.612,1.543.471,5.2.471,6.909S21.467,19.328,20.855,20.865Z" transform="translate(0.005 -2.238)" fill="#302b57"/>
</svg>
