<svg xmlns="http://www.w3.org/2000/svg" width="27.404" height="23.978" viewBox="0 0 27.404 23.978">
  <path id="Icon_awesome-quote-left" data-name="Icon awesome-quote-left" d="M24.834,14.239H20.553V10.814a3.429,3.429,0,0,1,3.425-3.425h.428A1.281,1.281,0,0,0,25.691,6.1V3.535A1.281,1.281,0,0,0,24.406,2.25h-.428a8.561,8.561,0,0,0-8.564,8.564V23.659a2.57,2.57,0,0,0,2.569,2.569h6.851A2.57,2.57,0,0,0,27.4,23.659V16.808A2.57,2.57,0,0,0,24.834,14.239Zm-15.415,0H5.138V10.814A3.429,3.429,0,0,1,8.564,7.388h.428A1.281,1.281,0,0,0,10.276,6.1V3.535A1.281,1.281,0,0,0,8.992,2.25H8.564A8.561,8.561,0,0,0,0,10.814V23.659a2.57,2.57,0,0,0,2.569,2.569H9.42a2.57,2.57,0,0,0,2.569-2.569V16.808A2.57,2.57,0,0,0,9.42,14.239Z" transform="translate(0 -2.25)" fill="#77698b"/>
</svg>
